<?xml version="1.0" encoding="utf-8"?>
<svg version="1.1" xmlns:xlink="http://www.w3.org/1999/xlink" width="60px" height="60px" xmlns="http://www.w3.org/2000/svg">
  <g transform="matrix(1 0 0 1 -157 -581 )">
    <path d="M 187 581  C 203.8 581  217 594.2  217 611  C 217 627.8  203.8 641  187 641  C 170.2 641  157 627.8  157 611  C 157 594.2  170.2 581  187 581  Z " fill-rule="nonzero" fill="#ffffff" stroke="none" />
    <path d="M 187 581.5  C 203.52 581.5  216.5 594.48  216.5 611  C 216.5 627.52  203.52 640.5  187 640.5  C 170.48 640.5  157.5 627.52  157.5 611  C 157.5 594.48  170.48 581.5  187 581.5  Z " stroke-width="1" stroke="#d7d7d7" fill="none" />
  </g>
</svg>